<?xml version="1.0" encoding="UTF-8" standalone="no"?>
<svg
   xmlns:dc="http://purl.org/dc/elements/1.1/"
   xmlns:cc="http://creativecommons.org/ns#"
   xmlns:rdf="http://www.w3.org/1999/02/22-rdf-syntax-ns#"
   xmlns:svg="http://www.w3.org/2000/svg"
   xmlns="http://www.w3.org/2000/svg"
   viewBox="0 0 1032.8533 362.97333"
   height="362.97333"
   width="1032.8533"
   xml:space="preserve"
   id="svg2"
   version="1.1"><metadata
     id="metadata8"><rdf:RDF><cc:Work
         rdf:about=""><dc:format>image/svg+xml</dc:format><dc:type
           rdf:resource="http://purl.org/dc/dcmitype/StillImage" /></cc:Work></rdf:RDF></metadata><defs
     id="defs6" /><g
     transform="matrix(1.3333333,0,0,-1.3333333,0,362.97333)"
     id="g10"><g
       transform="scale(0.1)"
       id="g12"><path
         id="path14"
         style="fill:#ffffff;fill-opacity:1;fill-rule:nonzero;stroke:none"
         d="m 992.953,239.852 c 0,526.25 288.767,952.858 644.967,952.858 127.06,0 245.53,-54.33 345.38,-148.05 -27.49,523.13 -460.36,938.85 -990.347,938.85 -128.832,0 -251.93,-24.59 -364.855,-69.3 62.254,7.12 128.132,10.96 196.328,10.96 383.054,0 693.574,-120.44 693.574,-269 0,-148.57 -310.52,-269.01 -693.574,-269.01 -293.598,0 -544.571,70.76 -645.797,170.71 C 66.8242,1397.33 1.21094,1202.22 1.21094,991.762 1.21094,444.031 445.238,0 992.953,0 999.836,0 1006.68,0.140625 1013.53,0.28125 1000.11,76.8203 992.953,157.09 992.953,239.852" /><path
         id="path16"
         style="fill:#ffffff;fill-opacity:1;fill-rule:nonzero;stroke:none"
         d="m 2678.45,1573.39 v -277.96 c 0,-60.62 -15.97,-105.88 -47.9,-135.78 -31.94,-29.9 -80.04,-44.84 -144.32,-44.84 -65.29,0 -113.91,14.94 -145.84,44.84 -31.94,29.9 -47.91,75.16 -47.91,135.78 v 277.96 h 94.89 v -263 c 0,-36.83 8.14,-64.54 24.41,-83.15 16.28,-18.61 40.58,-27.92 72.93,-27.92 32.54,0 57.15,9.36 73.83,28.07 16.68,18.71 25.02,46.37 25.02,83 v 263 h 94.89" /><path
         id="path18"
         style="fill:#ffffff;fill-opacity:1;fill-rule:nonzero;stroke:none"
         d="m 2849.01,1276.82 c 0,-27.06 6.66,-48.1 19.98,-63.16 13.32,-15.05 31.89,-22.58 55.69,-22.58 23.8,0 42.36,7.53 55.68,22.58 13.32,15.06 19.99,36.1 19.99,63.16 0,27.05 -6.77,48.36 -20.29,63.92 -13.53,15.56 -32.19,23.35 -55.99,23.35 -22.99,0 -41.24,-7.85 -54.77,-23.5 -13.53,-15.66 -20.29,-36.92 -20.29,-63.77 z m -79.33,-286.199 v 435.399 h 83.3 v -49.42 c 11.38,19.93 25.37,34.82 41.95,44.69 16.58,9.87 35.85,14.8 57.82,14.8 42.51,0 75.77,-14.09 99.77,-42.26 24,-28.17 36,-67.48 36,-117.93 0,-48.61 -12.1,-87.61 -36.3,-117.01 -24.21,-29.39 -56.04,-44.08 -95.51,-44.08 -23.8,0 -43.99,4.42 -60.56,13.27 -16.58,8.85 -30.77,22.72 -42.56,41.64 1.01,-7.52 1.78,-15.71 2.28,-24.56 0.51,-8.85 0.77,-18.96 0.77,-30.35 V 990.621 h -86.96" /><path
         id="path20"
         style="fill:#ffffff;fill-opacity:1;fill-rule:nonzero;stroke:none"
         d="m 3234.07,1276.82 c 0,-27.06 6.66,-48.1 19.98,-63.16 13.32,-15.05 31.88,-22.58 55.68,-22.58 23.8,0 42.36,7.53 55.68,22.58 13.32,15.06 19.99,36.1 19.99,63.16 0,27.05 -6.76,48.36 -20.29,63.92 -13.52,15.56 -32.2,23.35 -55.98,23.35 -22.99,0 -41.25,-7.85 -54.77,-23.5 -13.54,-15.66 -20.29,-36.92 -20.29,-63.77 z m -79.34,-286.199 v 435.399 h 83.3 v -49.42 c 11.39,19.93 25.37,34.82 41.95,44.69 16.59,9.87 35.85,14.8 57.82,14.8 42.52,0 75.77,-14.09 99.77,-42.26 24,-28.17 36.01,-67.48 36.01,-117.93 0,-48.61 -12.11,-87.61 -36.31,-117.01 -24.21,-29.39 -56.04,-44.08 -95.51,-44.08 -23.79,0 -43.98,4.42 -60.55,13.27 -16.59,8.85 -30.78,22.72 -42.57,41.64 1.01,-7.52 1.77,-15.71 2.28,-24.56 0.51,-8.85 0.77,-18.96 0.77,-30.35 V 990.621 h -86.96" /><path
         id="path22"
         style="fill:#ffffff;fill-opacity:1;fill-rule:nonzero;stroke:none"
         d="m 3510.49,1179.18 66.83,34.48 c 2.24,-11.59 8.23,-20.74 18,-27.45 9.76,-6.72 21.86,-10.08 36.31,-10.08 14.23,0 25.43,2.6 33.56,7.78 8.13,5.19 12.2,12.36 12.2,21.51 0,14.45 -14.44,26.55 -43.32,36.31 -8.95,3.05 -16.08,5.59 -21.36,7.63 -35.19,13.22 -59.55,26.54 -73.08,39.97 -13.52,13.43 -20.29,30 -20.29,49.74 0,29.28 11.49,52.98 34.48,71.08 22.98,18.11 53.29,27.16 90.93,27.16 26.85,0 50.08,-5.39 69.72,-16.17 19.63,-10.78 33.9,-26.04 42.87,-45.76 l -63.78,-31.74 c -3.46,11.18 -9.45,19.68 -17.99,25.48 -8.55,5.8 -19.23,8.69 -32.05,8.69 -12.81,0 -23.18,-2.64 -31.11,-7.93 -7.93,-5.3 -11.9,-12.21 -11.9,-20.74 0,-14.86 19.73,-28.69 59.18,-41.51 4.69,-1.42 8.24,-2.54 10.69,-3.35 32.75,-10.78 56.03,-23.34 69.87,-37.68 13.83,-14.34 20.74,-32.6 20.74,-54.77 0,-29.7 -11.48,-53.29 -34.47,-70.79 -22.99,-17.49 -54.01,-26.23 -93.06,-26.23 -30.92,0 -57.32,5.74 -79.18,17.24 -21.87,11.48 -36.46,27.19 -43.79,47.13" /><path
         id="path24"
         style="fill:#ffffff;fill-opacity:1;fill-rule:nonzero;stroke:none"
         d="m 4045.37,1276.82 c 0,26.85 -6.78,48.11 -20.3,63.77 -13.53,15.65 -31.78,23.5 -54.76,23.5 -23.61,0 -42.17,-7.79 -55.69,-23.35 -13.53,-15.56 -20.29,-36.87 -20.29,-63.92 0,-27.06 6.66,-48.1 19.98,-63.16 13.32,-15.05 31.78,-22.58 55.38,-22.58 24,0 42.61,7.53 55.83,22.58 13.22,15.06 19.85,36.1 19.85,63.16 z m 79.33,-150.12 h -84.22 l 1.21,43.02 c -11.79,-18.92 -25.97,-32.79 -42.55,-41.64 -16.59,-8.85 -36.77,-13.27 -60.57,-13.27 -39.67,0 -71.65,14.74 -95.96,44.24 -24.3,29.49 -36.46,68.44 -36.46,116.85 0,50.45 11.95,89.76 35.86,117.93 23.89,28.17 57.1,42.26 99.61,42.26 22.16,0 41.66,-4.99 58.43,-14.95 16.78,-9.97 30.86,-24.82 42.27,-44.54 v 49.42 h 82.38 V 1126.7" /><path
         id="path26"
         style="fill:#ffffff;fill-opacity:1;fill-rule:nonzero;stroke:none"
         d="m 4209.82,1126.7 v 472.93 h 86.64 V 1126.7 h -86.64" /><path
         id="path28"
         style="fill:#ffffff;fill-opacity:1;fill-rule:nonzero;stroke:none"
         d="m 4605.25,1276.82 c 0,26.85 -6.78,48.11 -20.29,63.77 -13.54,15.65 -31.78,23.5 -54.77,23.5 -23.59,0 -42.17,-7.79 -55.68,-23.35 -13.54,-15.56 -20.3,-36.87 -20.3,-63.92 0,-27.06 6.66,-48.1 19.98,-63.16 13.32,-15.05 31.78,-22.58 55.39,-22.58 23.99,0 42.6,7.53 55.82,22.58 13.23,15.06 19.85,36.1 19.85,63.16 z m 79.32,-150.12 h -84.2 l 1.21,43.02 c -11.8,-18.92 -25.98,-32.79 -42.56,-41.64 -16.58,-8.85 -36.76,-13.27 -60.57,-13.27 -39.67,0 -71.66,14.74 -95.96,44.24 -24.31,29.49 -36.46,68.44 -36.46,116.85 0,50.45 11.95,89.76 35.86,117.93 23.89,28.17 57.09,42.26 99.61,42.26 22.17,0 41.66,-4.99 58.44,-14.95 16.77,-9.97 30.86,-24.82 42.26,-44.54 v 49.42 h 82.37 V 1126.7" /><path
         id="path30"
         style="fill:#ffffff;fill-opacity:1;fill-rule:nonzero;stroke:none"
         d="m 4968.94,1126.7 v 231.28 h -41.8 v 68.04 h 41.8 v 99.46 h 86.95 v -99.46 h 41.8 v -68.04 h -41.8 V 1126.7 h -86.95" /><path
         id="path32"
         style="fill:#ffffff;fill-opacity:1;fill-rule:nonzero;stroke:none"
         d="m 5357.65,1307.33 c -2.44,18.91 -9.3,33.2 -20.58,42.87 -11.29,9.66 -26.7,14.49 -46.24,14.49 -19.53,0 -35.13,-4.83 -46.83,-14.49 -11.7,-9.67 -19.18,-23.96 -22.42,-42.87 z m 86.04,-52.48 h -224.87 c 3.46,-21.56 11.29,-37.68 23.5,-48.36 12.21,-10.67 28.79,-16.02 49.73,-16.02 15.87,0 29.55,3.05 41.03,9.15 11.5,6.11 21.11,15.36 28.85,27.77 l 70.17,-35.09 c -16.28,-26.24 -36.01,-45.71 -59.2,-58.43 -23.18,-12.7 -50.74,-19.06 -82.67,-19.06 -48.42,0 -86.76,14.43 -115.04,43.32 -28.28,28.88 -42.4,67.73 -42.4,116.55 0,46.99 14.78,85.64 44.39,115.95 29.59,30.3 67.48,45.46 113.65,45.46 47.6,0 85.22,-14.19 112.9,-42.56 27.65,-28.38 41.48,-67.08 41.48,-116.1 0,-2.65 -0.1,-5.54 -0.29,-8.7 -0.22,-3.15 -0.61,-7.78 -1.23,-13.88" /><path
         id="path34"
         style="fill:#ffffff;fill-opacity:1;fill-rule:nonzero;stroke:none"
         d="m 5509.6,1599.63 h 86.96 V 1293.6 l 111.05,132.42 h 104.36 l -120.53,-132.42 132.42,-166.9 h -107.4 l -119.9,158.67 V 1126.7 h -86.96 v 472.93" /><path
         id="path36"
         style="fill:#ffffff;fill-opacity:1;fill-rule:nonzero;stroke:none"
         d="m 5862.61,1126.7 v 299.32 h 85.14 v -46.99 c 15.64,19.53 32.48,33.91 50.49,43.17 18,9.26 37.99,13.89 59.96,13.89 23.18,0 42.65,-3.92 58.42,-11.75 15.76,-7.83 28.22,-19.79 37.38,-35.85 4.47,-8.34 7.67,-17.74 9.61,-28.22 1.93,-10.48 2.89,-26.91 2.89,-49.28 v -9.45 -174.84 h -86.95 v 147.98 c 0,36.82 -4.26,61.12 -12.82,72.92 -8.53,11.8 -23.18,17.7 -43.92,17.7 -12.01,0 -23.05,-2.49 -33.11,-7.47 -10.08,-4.99 -18.46,-12.05 -25.17,-21.2 -5.3,-7.13 -9.11,-15.27 -11.45,-24.42 -2.34,-9.15 -3.51,-23.08 -3.51,-41.79 v -11.91 -131.81 h -86.96" /><path
         id="path38"
         style="fill:#ffffff;fill-opacity:1;fill-rule:nonzero;stroke:none"
         d="m 6475.29,1275.9 c 0,24.42 -7.13,43.89 -21.37,58.43 -14.24,14.54 -33.36,21.82 -57.36,21.82 -24.01,0 -43.03,-7.22 -57.05,-21.66 -14.05,-14.45 -21.06,-33.98 -21.06,-58.59 0,-24.4 7.01,-43.93 21.06,-58.58 14.02,-14.64 33.04,-21.96 57.05,-21.96 23.81,0 42.87,7.32 57.2,21.96 14.34,14.65 21.53,34.18 21.53,58.58 z m 88.47,-0.6 c 0,-45.98 -15.72,-84.22 -47.14,-114.73 -31.43,-30.51 -71.23,-45.76 -119.46,-45.76 -48.61,0 -88.67,15.25 -120.21,45.76 -31.53,30.51 -47.29,68.75 -47.29,114.73 0,45.76 15.86,84 47.6,114.71 31.74,30.72 71.7,46.08 119.9,46.08 48.42,0 88.28,-15.16 119.61,-45.46 31.33,-30.31 46.99,-68.76 46.99,-115.33" /><path
         id="path40"
         style="fill:#ffffff;fill-opacity:1;fill-rule:nonzero;stroke:none"
         d="m 6632.73,1126.7 v 472.93 h 86.64 V 1126.7 h -86.64" /><path
         id="path42"
         style="fill:#ffffff;fill-opacity:1;fill-rule:nonzero;stroke:none"
         d="m 7033.94,1275.9 c 0,24.42 -7.13,43.89 -21.35,58.43 -14.26,14.54 -33.38,21.82 -57.36,21.82 -24,0 -43.03,-7.22 -57.07,-21.66 -14.02,-14.45 -21.06,-33.98 -21.06,-58.59 0,-24.4 7.04,-43.93 21.06,-58.58 14.04,-14.64 33.07,-21.96 57.07,-21.96 23.79,0 42.85,7.32 57.21,21.96 14.33,14.65 21.5,34.18 21.5,58.58 z m 88.48,-0.6 c 0,-45.98 -15.71,-84.22 -47.13,-114.73 -31.43,-30.51 -71.25,-45.76 -119.46,-45.76 -48.61,0 -88.69,15.25 -120.21,45.76 -31.54,30.51 -47.29,68.75 -47.29,114.73 0,45.76 15.86,84 47.6,114.71 31.72,30.72 71.7,46.08 119.9,46.08 48.4,0 88.29,-15.16 119.61,-45.46 31.31,-30.31 46.98,-68.76 46.98,-115.33" /><path
         id="path44"
         style="fill:#ffffff;fill-opacity:1;fill-rule:nonzero;stroke:none"
         d="m 7408.63,1276.82 c 0,26.44 -6.72,47.3 -20.14,62.55 -13.44,15.25 -31.74,22.88 -54.92,22.88 -23.81,0 -42.42,-7.58 -55.84,-22.73 -13.42,-15.16 -20.14,-36.06 -20.14,-62.7 0,-26.65 6.6,-47.4 19.83,-62.24 13.22,-14.86 31.73,-22.28 55.54,-22.28 23.79,0 42.35,7.42 55.69,22.28 13.3,14.84 19.98,35.59 19.98,62.24 z m 78.71,-145.23 c 0,-31.53 -1.88,-53.7 -5.65,-66.52 -3.77,-12.81 -10.21,-23.89 -19.37,-33.26 -13.01,-14.03 -29.71,-24.4 -50.04,-31.12 -20.33,-6.71 -45.06,-10.069 -74.14,-10.069 -48.61,0 -85.53,7.731 -110.76,23.189 -25.22,15.46 -38.95,38.96 -41.19,70.48 h 95.5 c 1.43,-11.59 6.72,-20.14 15.86,-25.62 9.16,-5.5 22.7,-8.25 40.59,-8.25 23.59,0 40.62,6.11 51.11,18.31 10.47,12.2 15.71,32.55 15.71,61.02 v 42.73 c -11.59,-18.52 -25.59,-32.25 -41.96,-41.2 -16.36,-8.95 -35.74,-13.42 -58.12,-13.42 -41.08,0 -73.95,14.38 -98.56,43.17 -24.61,28.78 -36.91,67.58 -36.91,116.4 0,49.62 12.01,88.48 36.01,116.55 23.99,28.07 57.15,42.11 99.46,42.11 21.77,0 41.15,-5.04 58.12,-15.11 16.99,-10.07 31.17,-24.86 42.58,-44.38 v 49.42 h 81.76 v -294.43" /><path
         id="path46"
         style="fill:#ffffff;fill-opacity:1;fill-rule:nonzero;stroke:none"
         d="m 7575.52,1237.15 v 76.9 h 170.86 v -76.9 h -170.86" /><path
         id="path48"
         style="fill:#ffffff;fill-opacity:1;fill-rule:nonzero;stroke:none"
         d="m 2513.08,526.051 c 0,24.41 -7.12,43.89 -21.36,58.429 -14.24,14.54 -33.36,21.809 -57.36,21.809 -24,0 -43.02,-7.211 -57.06,-21.66 -14.03,-14.438 -21.05,-33.969 -21.05,-58.578 0,-24.41 7.02,-43.942 21.05,-58.582 14.04,-14.641 33.06,-21.969 57.06,-21.969 23.8,0 42.87,7.328 57.21,21.969 14.34,14.64 21.51,34.172 21.51,58.582 z m 88.48,-0.61 c 0,-45.972 -15.71,-84.211 -47.14,-114.722 -31.42,-30.508 -71.24,-45.758 -119.45,-45.758 -48.61,0 -88.69,15.25 -120.21,45.758 -31.53,30.511 -47.29,68.75 -47.29,114.722 0,45.77 15.86,84.008 47.59,114.719 31.74,30.711 71.71,46.07 119.91,46.07 48.41,0 88.28,-15.148 119.6,-45.449 31.33,-30.32 46.99,-68.761 46.99,-115.34" /><path
         id="path50"
         style="fill:#ffffff;fill-opacity:1;fill-rule:nonzero;stroke:none"
         d="m 2897.13,385.699 c -11.8,-7.117 -24.21,-12.359 -37.22,-15.719 -13.02,-3.351 -27.26,-5.019 -42.72,-5.019 -47.19,0 -85.63,14.988 -115.33,45 -29.7,30 -44.55,69 -44.55,117.008 0,46.98 14.96,85.269 44.86,114.871 29.9,29.601 68.65,44.39 116.24,44.39 15.87,0 30.11,-1.519 42.72,-4.582 12.61,-3.039 24.61,-7.828 36,-14.328 l -0.61,-87.269 c -9.15,9.359 -19.73,16.59 -31.73,21.668 -12,5.082 -24.71,7.633 -38.14,7.633 -24.41,0 -43.94,-7.481 -58.58,-22.43 -14.65,-14.953 -21.97,-34.742 -21.97,-59.352 0,-25.218 7.48,-45.3 22.43,-60.25 14.95,-14.949 35.13,-22.429 60.56,-22.429 14.04,0 26.5,2.55 37.38,7.621 10.88,5.09 20.9,13.019 30.05,23.797 l 0.61,-90.61" /><path
         id="path52"
         style="fill:#ffffff;fill-opacity:1;fill-rule:nonzero;stroke:none"
         d="m 2972.1,376.852 v 472.929 h 85.13 V 681.648 c 0,-9.347 -0.31,-18.66 -0.92,-27.91 -0.61,-9.25 -1.52,-18.258 -2.74,-27 17.89,20.953 35.85,36.102 53.85,45.461 18,9.36 38.09,14.031 60.26,14.031 23.18,0 42.76,-3.96 58.73,-11.89 15.98,-7.942 28.32,-19.828 37.07,-35.699 4.47,-8.34 7.68,-17.75 9.61,-28.219 1.93,-10.481 2.91,-26.91 2.91,-49.281 V 551.68 376.852 h -86.96 v 147.98 c 0,36.809 -4.27,61.117 -12.81,72.918 -8.55,11.801 -23.2,17.691 -43.94,17.691 -12.01,0 -23.04,-2.492 -33.11,-7.472 -10.06,-4.989 -18.46,-12.047 -25.17,-21.199 -5.29,-7.129 -9.1,-15.258 -11.44,-24.411 -2.34,-9.148 -3.51,-23.089 -3.51,-41.8 V 508.66 376.852 h -86.96" /><path
         id="path54"
         style="fill:#ffffff;fill-opacity:1;fill-rule:nonzero;stroke:none"
         d="m 3569.04,376.852 v 299.32 h 85.12 v -47 c 15.67,19.539 32.5,33.918 50.49,43.18 18.01,9.257 38,13.878 59.96,13.878 23.2,0 42.67,-3.91 58.43,-11.742 15.76,-7.84 28.22,-19.789 37.38,-35.847 4.48,-8.34 7.68,-17.75 9.61,-28.219 1.94,-10.481 2.89,-26.91 2.89,-49.281 V 551.68 376.852 h -86.95 v 147.98 c 0,36.809 -4.28,61.117 -12.81,72.918 -8.55,11.801 -23.18,17.691 -43.95,17.691 -11.99,0 -23.02,-2.492 -33.09,-7.472 -10.07,-4.989 -18.46,-12.047 -25.18,-21.199 -5.29,-7.129 -9.1,-15.258 -11.44,-24.411 -2.34,-9.148 -3.5,-23.089 -3.5,-41.8 V 508.66 376.852 h -86.96" /><path
         id="path56"
         style="fill:#ffffff;fill-opacity:1;fill-rule:nonzero;stroke:none"
         d="m 4185.29,526.969 c 0,26.84 -6.78,48.101 -20.3,63.769 -13.53,15.653 -31.77,23.492 -54.76,23.492 -23.59,0 -42.17,-7.781 -55.68,-23.351 -13.54,-15.551 -20.3,-36.859 -20.3,-63.91 0,-27.059 6.66,-48.11 19.98,-63.168 13.32,-15.039 31.78,-22.571 55.39,-22.571 23.99,0 42.6,7.532 55.82,22.571 13.23,15.058 19.85,36.109 19.85,63.168 z m 79.33,-150.117 h -84.22 l 1.22,43.019 c -11.8,-18.922 -25.98,-32.789 -42.56,-41.641 -16.58,-8.851 -36.76,-13.269 -60.57,-13.269 -39.67,0 -71.65,14.73 -95.96,44.23 -24.3,29.5 -36.46,68.45 -36.46,116.86 0,50.449 11.95,89.75 35.86,117.929 23.89,28.161 57.11,42.25 99.61,42.25 22.17,0 41.66,-4.992 58.44,-14.949 16.77,-9.972 30.85,-24.812 42.26,-44.543 v 49.434 h 82.38 v -299.32" /><path
         id="path58"
         style="fill:#ffffff;fill-opacity:1;fill-rule:nonzero;stroke:none"
         d="m 4366.44,376.852 v 231.277 h -41.8 v 68.043 h 41.8 v 99.457 h 86.95 v -99.457 h 41.8 v -68.043 h -41.8 V 376.852 h -86.95" /><path
         id="path60"
         style="fill:#ffffff;fill-opacity:1;fill-rule:nonzero;stroke:none"
         d="M 4643.39,676.172 V 518.73 c 0,-26.449 5.14,-45.371 15.41,-56.75 10.28,-11.398 27.02,-17.089 50.2,-17.089 22.99,0 39.67,5.75 50.04,17.238 10.37,11.492 15.56,30.351 15.56,56.601 v 157.442 h 86.96 V 518.73 c 0,-52.691 -12.31,-91.492 -36.92,-116.398 -24.63,-24.922 -62.75,-37.371 -114.43,-37.371 -52.68,0 -91.37,12.398 -116.09,37.211 -24.71,24.816 -37.07,63.66 -37.07,116.558 v 157.442 h 86.34" /><path
         id="path62"
         style="fill:#ffffff;fill-opacity:1;fill-rule:nonzero;stroke:none"
         d="m 5038.43,599.281 c 8.73,29.078 21.31,50.848 37.68,65.301 16.37,14.43 36.66,21.648 60.88,21.648 5.49,0 14.53,-1.011 27.15,-3.039 2.44,-0.41 4.27,-0.722 5.48,-0.921 l -13.12,-93.372 c -6.51,2.653 -13.07,4.633 -19.67,5.961 -6.62,1.321 -13.57,1.981 -20.9,1.981 -26.44,0 -45.47,-6.77 -57.07,-20.289 -11.58,-13.539 -17.38,-36.16 -17.38,-67.891 V 376.852 h -86.95 v 299.32 h 85.72 l -1.82,-76.891" /><path
         id="path64"
         style="fill:#ffffff;fill-opacity:1;fill-rule:nonzero;stroke:none"
         d="m 5292.2,376.852 -121.74,299.32 h 100.37 l 50.65,-155.613 c 4.08,-12.618 7.32,-24.321 9.76,-35.09 2.45,-10.789 4.18,-21.348 5.2,-31.739 2.44,15.668 4.88,29 7.32,39.981 2.45,10.98 5.28,20.937 8.54,29.898 l 50.96,152.563 h 98.84 l -122.95,-299.32 h -86.95" /><path
         id="path66"
         style="fill:#ffffff;fill-opacity:1;fill-rule:nonzero;stroke:none"
         d="m 5755.27,557.48 c -2.44,18.911 -9.3,33.2 -20.59,42.872 -11.29,9.66 -26.7,14.488 -46.23,14.488 -19.53,0 -35.13,-4.828 -46.83,-14.488 -11.7,-9.672 -19.18,-23.961 -22.43,-42.872 z m 86.03,-52.492 h -224.86 c 3.46,-21.558 11.29,-37.668 23.5,-48.347 12.2,-10.68 28.79,-16.02 49.72,-16.02 15.88,0 29.55,3.051 41.04,9.149 11.5,6.101 21.11,15.359 28.85,27.761 l 70.17,-35.082 c -16.29,-26.238 -36.01,-45.719 -59.2,-58.429 -23.18,-12.711 -50.74,-19.059 -82.67,-19.059 -48.42,0 -86.76,14.43 -115.04,43.32 -28.28,28.867 -42.41,67.731 -42.41,116.551 0,46.988 14.79,85.629 44.4,115.949 29.59,30.301 67.48,45.449 113.65,45.449 47.6,0 85.22,-14.179 112.89,-42.55 27.66,-28.379 41.49,-67.078 41.49,-116.11 0,-2.64 -0.1,-5.531 -0.3,-8.691 -0.21,-3.149 -0.6,-7.777 -1.23,-13.891" /><path
         id="path68"
         style="fill:#ffffff;fill-opacity:1;fill-rule:nonzero;stroke:none"
         d="m 5927.26,376.852 v 231.277 h -41.8 v 68.043 h 41.8 v 99.457 h 86.97 v -99.457 h 41.8 v -68.043 h -41.8 V 376.852 h -86.97" /><path
         id="path70"
         style="fill:#ffffff;fill-opacity:1;fill-rule:nonzero;stroke:none"
         d="m 6339.7,526.969 c 0,26.84 -6.78,48.101 -20.29,63.769 -13.54,15.653 -31.78,23.492 -54.77,23.492 -23.59,0 -42.16,-7.781 -55.68,-23.351 -13.54,-15.551 -20.29,-36.859 -20.29,-63.91 0,-27.059 6.66,-48.11 19.98,-63.168 13.32,-15.039 31.77,-22.571 55.39,-22.571 23.98,0 42.6,7.532 55.82,22.571 13.22,15.058 19.84,36.109 19.84,63.168 z m 79.32,-150.117 h -84.2 l 1.21,43.019 c -11.8,-18.922 -25.98,-32.789 -42.56,-41.641 -16.58,-8.851 -36.76,-13.269 -60.57,-13.269 -39.66,0 -71.66,14.73 -95.95,44.23 -24.32,29.5 -36.47,68.45 -36.47,116.86 0,50.449 11.96,89.75 35.86,117.929 23.89,28.161 57.11,42.25 99.61,42.25 22.17,0 41.66,-4.992 58.44,-14.949 16.78,-9.972 30.86,-24.812 42.26,-44.543 v 49.434 h 82.37 v -299.32" /><path
         id="path72"
         style="fill:#ffffff;fill-opacity:1;fill-rule:nonzero;stroke:none"
         d="m 6594.08,599.281 c 8.73,29.078 21.31,50.848 37.67,65.301 16.37,14.43 36.66,21.648 60.88,21.648 5.49,0 14.53,-1.011 27.15,-3.039 2.44,-0.41 4.28,-0.722 5.49,-0.921 l -13.13,-93.372 c -6.5,2.653 -13.06,4.633 -19.66,5.961 -6.63,1.321 -13.58,1.981 -20.9,1.981 -26.45,0 -45.47,-6.77 -57.07,-20.289 -11.59,-13.539 -17.39,-36.16 -17.39,-67.891 V 376.852 h -86.95 v 299.32 h 85.72 l -1.81,-76.891" /><path
         id="path74"
         style="fill:#ffffff;fill-opacity:1;fill-rule:nonzero;stroke:none"
         d="m 6774,849.781 h 86.95 V 543.738 l 111.08,132.434 h 104.33 L 6955.85,543.738 7088.28,376.852 h -107.41 l -119.92,158.66 V 376.852 H 6774 v 472.929" /><path
         id="path76"
         style="fill:#ffffff;fill-opacity:1;fill-rule:nonzero;stroke:none"
         d="m 7248.37,786.77 c 0,-10.508 3.62,-19.411 10.82,-26.719 7.23,-7.313 16.14,-10.961 26.7,-10.961 10.18,0 18.97,3.699 26.41,11.121 7.42,7.41 11.13,16.258 11.13,26.559 0,10.5 -3.67,19.359 -10.99,26.558 -7.31,7.211 -16.16,10.813 -26.55,10.813 -10.56,0 -19.47,-3.602 -26.7,-10.813 -7.2,-7.199 -10.82,-16.058 -10.82,-26.558 z m 108.62,-259.801 c 0,26.84 -6.76,48.101 -20.3,63.769 -13.51,15.653 -31.77,23.492 -54.76,23.492 -23.6,0 -42.15,-7.781 -55.69,-23.351 -13.51,-15.551 -20.29,-36.859 -20.29,-63.91 0,-27.059 6.66,-48.11 20,-63.168 13.32,-15.039 31.78,-22.571 55.37,-22.571 24.01,0 42.62,7.532 55.84,22.571 13.23,15.058 19.83,36.109 19.83,63.168 z m -152.25,259.5 c 0,22.531 7.91,41.722 23.75,57.551 15.84,15.839 35.02,23.761 57.56,23.761 22.32,0 41.43,-7.922 57.25,-23.761 15.84,-15.829 23.77,-35.02 23.77,-57.551 0,-22.547 -7.88,-41.68 -23.62,-57.41 -15.72,-15.731 -34.86,-23.61 -57.4,-23.61 -22.54,0 -41.72,7.879 -57.56,23.61 -15.84,15.73 -23.75,34.863 -23.75,57.41 z m 231.58,-409.617 h -84.22 l 1.23,43.019 c -11.79,-18.922 -25.99,-32.789 -42.55,-41.641 -16.59,-8.851 -36.78,-13.269 -60.57,-13.269 -39.67,0 -71.66,14.73 -95.96,44.23 -24.31,29.5 -36.46,68.45 -36.46,116.86 0,50.449 11.93,89.75 35.84,117.929 23.9,28.161 57.11,42.25 99.63,42.25 22.16,0 41.64,-4.992 58.41,-14.949 16.8,-9.972 30.88,-24.812 42.27,-44.543 v 49.434 h 82.38 v -299.32" /><path
         id="path78"
         style="fill:#ffffff;fill-opacity:1;fill-rule:nonzero;stroke:none"
         d="m 7611.38,599.281 c 8.73,29.078 21.31,50.848 37.68,65.301 16.36,14.43 36.66,21.648 60.88,21.648 5.48,0 14.53,-1.011 27.14,-3.039 2.45,-0.41 4.28,-0.722 5.49,-0.921 l -13.12,-93.372 c -6.51,2.653 -13.07,4.633 -19.67,5.961 -6.62,1.321 -13.57,1.981 -20.9,1.981 -26.44,0 -45.47,-6.77 -57.07,-20.289 -11.58,-13.539 -17.38,-36.16 -17.38,-67.891 V 376.852 h -86.95 v 299.32 h 85.72 l -1.82,-76.891" /><path
         id="path80"
         style="fill:#ffffff;fill-opacity:1;fill-rule:nonzero;stroke:none"
         d="m 0,2379.16 v 343.12 h 202.031 v -61.87 H 73.3594 v -70.55 H 202.031 v -62.34 H 73.3594 V 2441.5 H 202.031 v -62.34 H 0" /><path
         id="path82"
         style="fill:#ffffff;fill-opacity:1;fill-rule:nonzero;stroke:none"
         d="m 276.328,2379.16 v 177.65 h -32.109 v 52.26 h 32.109 v 76.41 h 66.797 v -76.41 h 32.109 v -52.26 h -32.109 v -177.65 h -66.797" /><path
         id="path84"
         style="fill:#ffffff;fill-opacity:1;fill-rule:nonzero;stroke:none"
         d="m 424.688,2379.16 v 177.65 h -32.11 v 52.26 h 32.11 v 76.41 h 66.796 v -76.41 h 32.11 v -52.26 h -32.11 v -177.65 h -66.796" /><path
         id="path86"
         style="fill:#ffffff;fill-opacity:1;fill-rule:nonzero;stroke:none"
         d="m 881.719,2494.47 c 0,20.62 -5.196,36.95 -15.586,48.98 -10.391,12.03 -24.414,18.05 -42.07,18.05 -18.125,0 -32.383,-5.98 -42.774,-17.93 -10.391,-11.96 -15.586,-28.32 -15.586,-49.1 0,-20.78 5.117,-36.95 15.352,-48.52 10.234,-11.56 24.414,-17.34 42.539,-17.34 18.437,0 32.734,5.78 42.89,17.34 10.157,11.57 15.235,27.74 15.235,48.52 z m 60.937,-115.31 h -64.687 l 0.937,33.04 c -9.062,-14.53 -19.961,-25.19 -32.695,-31.99 -12.734,-6.8 -28.242,-10.19 -46.523,-10.19 -30.469,0 -55.04,11.32 -73.711,33.98 -18.672,22.66 -28.008,52.57 -28.008,89.77 0,38.75 9.179,68.94 27.539,90.58 18.359,21.64 43.867,32.46 76.523,32.46 17.032,0 31.992,-3.83 44.883,-11.49 12.891,-7.65 23.711,-19.05 32.461,-34.21 v 37.96 h 63.281 v -229.91" /><path
         id="path88"
         style="fill:#ffffff;fill-opacity:1;fill-rule:nonzero;stroke:none"
         d="m 1069.92,2550.02 c 6.72,22.34 16.37,39.05 28.95,50.15 12.57,11.1 28.16,16.64 46.75,16.64 4.22,0 11.18,-0.78 20.86,-2.34 1.88,-0.31 3.29,-0.55 4.22,-0.7 l -10.08,-71.72 c -5,2.02 -10.03,3.55 -15.11,4.57 -5.08,1.01 -10.43,1.52 -16.06,1.52 -20.31,0 -34.92,-5.19 -43.83,-15.59 -8.9,-10.39 -13.35,-27.77 -13.35,-52.14 v -101.25 h -66.8 v 229.91 h 65.86 l -1.41,-59.05" /><path
         id="path90"
         style="fill:#ffffff;fill-opacity:1;fill-rule:nonzero;stroke:none"
         d="m 1265.39,2550.02 c 6.72,22.34 16.37,39.05 28.95,50.15 12.57,11.1 28.16,16.64 46.75,16.64 4.22,0 11.18,-0.78 20.86,-2.34 1.88,-0.31 3.28,-0.55 4.22,-0.7 l -10.08,-71.72 c -5,2.02 -10.04,3.55 -15.11,4.57 -5.08,1.01 -10.43,1.52 -16.06,1.52 -20.31,0 -34.92,-5.19 -43.83,-15.59 -8.9,-10.39 -13.36,-27.77 -13.36,-52.14 v -101.25 h -66.79 v 229.91 h 65.86 l -1.41,-59.05" /><path
         id="path92"
         style="fill:#ffffff;fill-opacity:1;fill-rule:nonzero;stroke:none"
         d="m 1565.86,2494.47 c 0,20.62 -5.2,36.95 -15.59,48.98 -10.39,12.03 -24.41,18.05 -42.07,18.05 -18.12,0 -32.38,-5.98 -42.77,-17.93 -10.39,-11.96 -15.59,-28.32 -15.59,-49.1 0,-20.78 5.12,-36.95 15.35,-48.52 10.24,-11.56 24.42,-17.34 42.54,-17.34 18.44,0 32.74,5.78 42.89,17.34 10.16,11.57 15.24,27.74 15.24,48.52 z m 60.94,-115.31 h -64.69 l 0.94,33.04 c -9.07,-14.53 -19.96,-25.19 -32.7,-31.99 -12.73,-6.8 -28.24,-10.19 -46.52,-10.19 -30.47,0 -55.04,11.32 -73.71,33.98 -18.68,22.66 -28.01,52.57 -28.01,89.77 0,38.75 9.18,68.94 27.54,90.58 18.36,21.64 43.87,32.46 76.52,32.46 17.03,0 31.99,-3.83 44.88,-11.49 12.89,-7.65 23.72,-19.05 32.47,-34.21 v 37.96 h 63.28 v -229.91" /><path
         id="path94"
         style="fill:#ffffff;fill-opacity:1;fill-rule:nonzero;stroke:none"
         d="m 1689.61,2379.16 v 229.91 H 1755 v -36.09 c 12.03,15 24.96,26.06 38.79,33.17 13.83,7.11 29.18,10.66 46.05,10.66 17.82,0 32.78,-3.01 44.89,-9.02 12.11,-6.02 21.68,-15.2 28.71,-27.54 3.43,-6.41 5.9,-13.63 7.38,-21.68 1.48,-8.05 2.23,-20.66 2.23,-37.85 v -7.27 -134.29 h -66.8 v 113.66 c 0,28.29 -3.28,46.96 -9.84,56.02 -6.57,9.07 -17.82,13.6 -33.75,13.6 -9.22,0 -17.7,-1.92 -25.43,-5.74 -7.74,-3.83 -14.18,-9.26 -19.34,-16.29 -4.06,-5.47 -6.99,-11.72 -8.79,-18.75 -1.8,-7.03 -2.69,-17.74 -2.69,-32.11 v -9.14 -101.25 h -66.8" /><path
         id="path96"
         style="fill:#ffffff;fill-opacity:1;fill-rule:nonzero;stroke:none"
         d="m 2155.78,2494.47 c 0,20.31 -5.16,36.33 -15.47,48.05 -10.31,11.71 -24.37,17.57 -42.19,17.57 -18.28,0 -32.57,-5.82 -42.89,-17.46 -10.31,-11.64 -15.46,-27.69 -15.46,-48.16 0,-20.47 5.07,-36.41 15.23,-47.81 10.16,-11.41 24.37,-17.11 42.66,-17.11 18.28,0 32.53,5.7 42.77,17.11 10.23,11.4 15.35,27.34 15.35,47.81 z m 60.47,-111.56 c 0,-24.22 -1.45,-41.25 -4.34,-51.1 -2.89,-9.84 -7.85,-18.36 -14.88,-25.54 -10,-10.79 -22.81,-18.75 -38.44,-23.91 -15.62,-5.16 -34.61,-7.73 -56.95,-7.73 -37.34,0 -65.7,5.93 -85.08,17.81 -19.37,11.87 -29.92,29.92 -31.64,54.13 h 73.36 c 1.09,-8.9 5.16,-15.46 12.19,-19.68 7.03,-4.22 17.42,-6.33 31.17,-6.33 18.13,0 31.21,4.69 39.26,14.07 8.04,9.37 12.07,25 12.07,46.87 v 32.81 c -8.91,-14.22 -19.65,-24.76 -32.23,-31.64 -12.58,-6.87 -27.46,-10.31 -44.65,-10.31 -31.56,0 -56.79,11.05 -75.7,33.16 -18.91,22.11 -28.36,51.92 -28.36,89.42 0,38.12 9.22,67.97 27.66,89.53 18.43,21.56 43.9,32.34 76.4,32.34 16.72,0 31.6,-3.86 44.65,-11.6 13.05,-7.73 23.95,-19.1 32.7,-34.1 v 37.96 h 62.81 v -226.16" /><path
         id="path98"
         style="fill:#ffffff;fill-opacity:1;fill-rule:nonzero;stroke:none"
         d="m 2440.55,2517.91 c -1.88,14.53 -7.15,25.5 -15.82,32.93 -8.68,7.42 -20.51,11.13 -35.51,11.13 -15,0 -26.99,-3.71 -35.98,-11.13 -8.98,-7.43 -14.72,-18.4 -17.22,-32.93 z m 66.09,-40.32 h -172.73 c 2.65,-16.56 8.67,-28.94 18.04,-37.14 9.38,-8.21 22.11,-12.31 38.21,-12.31 12.18,0 22.69,2.34 31.52,7.03 8.83,4.69 16.21,11.8 22.15,21.33 l 53.9,-26.95 c -12.5,-20.16 -27.65,-35.12 -45.46,-44.89 -17.82,-9.76 -38.99,-14.64 -63.52,-14.64 -37.19,0 -66.64,11.09 -88.36,33.28 -21.72,22.18 -32.58,52.02 -32.58,89.52 0,36.1 11.37,65.79 34.1,89.07 22.74,23.28 51.84,34.92 87.31,34.92 36.56,0 65.47,-10.9 86.72,-32.69 21.25,-21.8 31.87,-51.53 31.87,-89.18 0,-2.03 -0.08,-4.26 -0.23,-6.68 -0.16,-2.42 -0.47,-5.98 -0.94,-10.67" /><path
         id="path100"
         style="fill:#ffffff;fill-opacity:1;fill-rule:nonzero;stroke:none"
         d="m 2623.12,2379.16 h -66.79 v 229.91 h 66.79 v -36.09 c 10.94,15.16 22.62,26.25 35.04,33.29 12.43,7.03 26.53,10.54 42.31,10.54 19.06,0 34.57,-3.9 46.52,-11.72 11.95,-7.81 20.43,-19.61 25.43,-35.39 10.63,15.62 22.7,27.39 36.21,35.28 13.52,7.89 28.32,11.83 44.42,11.83 16.25,0 30.04,-3.01 41.36,-9.02 11.33,-6.02 20.12,-15.04 26.37,-27.07 3.28,-6.56 5.63,-13.99 7.03,-22.27 1.41,-8.28 2.11,-20.86 2.11,-37.73 v -7.27 -134.29 h -66.8 v 113.66 c 0,27.98 -2.85,46.57 -8.55,55.79 -5.7,9.21 -15.66,13.83 -29.88,13.83 -17.19,0 -29.65,-6.41 -37.39,-19.22 -7.73,-12.81 -11.6,-33.75 -11.6,-62.81 v -101.25 h -66.79 v 113.66 c 0,27.04 -2.66,45.32 -7.97,54.85 -5.32,9.53 -14.46,14.3 -27.42,14.3 -17.66,0 -30.47,-6.45 -38.44,-19.34 -7.97,-12.89 -11.96,-33.63 -11.96,-62.22 v -101.25" /><path
         id="path102"
         style="fill:#ffffff;fill-opacity:1;fill-rule:nonzero;stroke:none"
         d="m 3163.12,2494.47 c 0,20.62 -5.19,36.95 -15.58,48.98 -10.39,12.03 -24.42,18.05 -42.07,18.05 -18.13,0 -32.38,-5.98 -42.78,-17.93 -10.39,-11.96 -15.58,-28.32 -15.58,-49.1 0,-20.78 5.12,-36.95 15.35,-48.52 10.23,-11.56 24.41,-17.34 42.54,-17.34 18.44,0 32.73,5.78 42.89,17.34 10.16,11.57 15.23,27.74 15.23,48.52 z m 60.94,-115.31 h -64.69 l 0.94,33.04 c -9.06,-14.53 -19.96,-25.19 -32.69,-31.99 -12.74,-6.8 -28.25,-10.19 -46.53,-10.19 -30.47,0 -55.04,11.32 -73.71,33.98 -18.67,22.66 -28.01,52.57 -28.01,89.77 0,38.75 9.18,68.94 27.54,90.58 18.36,21.64 43.87,32.46 76.53,32.46 17.03,0 31.99,-3.83 44.88,-11.49 12.89,-7.65 23.71,-19.05 32.46,-34.21 v 37.96 h 63.28 v -229.91" /><path
         id="path104"
         style="fill:#ffffff;fill-opacity:1;fill-rule:nonzero;stroke:none"
         d="m 3286.87,2379.16 v 229.91 h 65.4 v -36.09 c 12.03,15 24.96,26.06 38.78,33.17 13.83,7.11 29.18,10.66 46.06,10.66 17.81,0 32.77,-3.01 44.88,-9.02 12.11,-6.02 21.68,-15.2 28.71,-27.54 3.44,-6.41 5.9,-13.63 7.39,-21.68 1.48,-8.05 2.22,-20.66 2.22,-37.85 v -7.27 -134.29 h -66.79 v 113.66 c 0,28.29 -3.29,46.96 -9.85,56.02 -6.56,9.07 -17.81,13.6 -33.75,13.6 -9.22,0 -17.69,-1.92 -25.43,-5.74 -7.73,-3.83 -14.18,-9.26 -19.33,-16.29 -4.07,-5.47 -7,-11.72 -8.79,-18.75 -1.8,-7.03 -2.7,-17.74 -2.7,-32.11 v -9.14 -101.25 h -66.8" /><path
         id="path106"
         style="fill:#ffffff;fill-opacity:1;fill-rule:nonzero;stroke:none"
         d="m 3753.05,2494.47 c 0,20.31 -5.16,36.33 -15.47,48.05 -10.31,11.71 -24.38,17.57 -42.19,17.57 -18.28,0 -32.58,-5.82 -42.89,-17.46 -10.31,-11.64 -15.47,-27.69 -15.47,-48.16 0,-20.47 5.08,-36.41 15.24,-47.81 10.15,-11.41 24.37,-17.11 42.65,-17.11 18.28,0 32.54,5.7 42.77,17.11 10.24,11.4 15.36,27.34 15.36,47.81 z m 60.47,-111.56 c 0,-24.22 -1.45,-41.25 -4.34,-51.1 -2.89,-9.84 -7.85,-18.36 -14.88,-25.54 -10,-10.79 -22.82,-18.75 -38.44,-23.91 -15.63,-5.16 -34.61,-7.73 -56.95,-7.73 -37.35,0 -65.71,5.93 -85.08,17.81 -19.38,11.87 -29.92,29.92 -31.64,54.13 h 73.36 c 1.09,-8.9 5.15,-15.46 12.18,-19.68 7.04,-4.22 17.43,-6.33 31.18,-6.33 18.12,0 31.21,4.69 39.25,14.07 8.05,9.37 12.07,25 12.07,46.87 v 32.81 c -8.9,-14.22 -19.64,-24.76 -32.22,-31.64 -12.58,-6.87 -27.46,-10.31 -44.65,-10.31 -31.56,0 -56.8,11.05 -75.7,33.16 -18.91,22.11 -28.36,51.92 -28.36,89.42 0,38.12 9.22,67.97 27.65,89.53 18.44,21.56 43.91,32.34 76.41,32.34 16.72,0 31.6,-3.86 44.65,-11.6 13.04,-7.73 23.94,-19.1 32.69,-34.1 v 37.96 h 62.82 v -226.16" /><path
         id="path108"
         style="fill:#ffffff;fill-opacity:1;fill-rule:nonzero;stroke:none"
         d="m 4196.25,2494.47 c 0,20.62 -5.19,36.95 -15.58,48.98 -10.39,12.03 -24.42,18.05 -42.07,18.05 -18.13,0 -32.38,-5.98 -42.78,-17.93 -10.39,-11.96 -15.58,-28.32 -15.58,-49.1 0,-20.78 5.12,-36.95 15.35,-48.52 10.23,-11.56 24.41,-17.34 42.54,-17.34 18.44,0 32.73,5.78 42.89,17.34 10.16,11.57 15.23,27.74 15.23,48.52 z m 60.94,-115.31 h -64.69 l 0.94,33.04 c -9.06,-14.53 -19.96,-25.19 -32.69,-31.99 -12.74,-6.8 -28.25,-10.19 -46.53,-10.19 -30.47,0 -55.04,11.32 -73.71,33.98 -18.67,22.66 -28.01,52.57 -28.01,89.77 0,38.75 9.18,68.94 27.54,90.58 18.36,21.64 43.87,32.46 76.53,32.46 17.03,0 31.99,-3.83 44.88,-11.49 12.89,-7.65 23.71,-19.05 32.46,-34.21 v 37.96 h 63.28 v -229.91" /><path
         id="path110"
         style="fill:#ffffff;fill-opacity:1;fill-rule:nonzero;stroke:none"
         d="m 4376.72,2379.16 -93.51,229.91 h 77.11 l 38.9,-119.52 c 3.13,-9.69 5.63,-18.67 7.5,-26.96 1.88,-8.28 3.21,-16.4 3.99,-24.37 1.87,12.03 3.75,22.26 5.62,30.7 1.88,8.44 4.07,16.1 6.57,22.97 l 39.14,117.18 h 75.93 l -94.45,-229.91 h -66.8" /><path
         id="path112"
         style="fill:#ffffff;fill-opacity:1;fill-rule:nonzero;stroke:none"
         d="m 4574.54,2412.67 c 0,11.25 3.9,20.71 11.71,28.36 7.82,7.66 17.35,11.49 28.6,11.49 11.09,0 20.51,-3.83 28.24,-11.49 7.73,-7.65 11.6,-17.11 11.6,-28.36 0,-11.1 -3.87,-20.58 -11.6,-28.47 -7.73,-7.9 -17.15,-11.84 -28.24,-11.84 -11.1,0 -20.59,3.98 -28.48,11.95 -7.89,7.97 -11.83,17.42 -11.83,28.36 z m 0,153.28 c 0,11.1 3.9,20.51 11.71,28.25 7.82,7.73 17.35,11.6 28.6,11.6 11.09,0 20.51,-3.87 28.24,-11.6 7.73,-7.74 11.6,-17.15 11.6,-28.25 0,-11.25 -3.87,-20.78 -11.6,-28.59 -7.73,-7.81 -17.15,-11.72 -28.24,-11.72 -11.1,0 -20.59,3.95 -28.48,11.84 -7.89,7.89 -11.83,17.38 -11.83,28.47" /></g></g></svg>